<mxfile host="app.diagrams.net" modified="2024-05-03T23:01:38.828Z" agent="Mozilla/5.0 (Macintosh; Intel Mac OS X 10_15_7) AppleWebKit/605.1.15 (KHTML, like Gecko) Version/17.4.1 Safari/605.1.15" etag="rgFiF8ylBvBYd6zNLBSg" version="24.3.1" type="github">
  <diagram name="Página-1" id="6aer8vInVd5C86XDz58g">
    <mxGraphModel dx="1242" dy="804" grid="1" gridSize="10" guides="1" tooltips="1" connect="1" arrows="1" fold="1" page="1" pageScale="1" pageWidth="3300" pageHeight="2339" math="0" shadow="0">
      <root>
        <mxCell id="0" />
        <mxCell id="1" parent="0" />
        <mxCell id="Eut6qoM-Ry_GhNk9pcmR-4" style="rounded=0;orthogonalLoop=1;jettySize=auto;html=1;exitX=1;exitY=0;exitDx=0;exitDy=0;entryX=0;entryY=1;entryDx=0;entryDy=0;endArrow=none;endFill=0;" edge="1" parent="1" source="Eut6qoM-Ry_GhNk9pcmR-1" target="Eut6qoM-Ry_GhNk9pcmR-2">
          <mxGeometry relative="1" as="geometry" />
        </mxCell>
        <mxCell id="Eut6qoM-Ry_GhNk9pcmR-5" style="rounded=0;orthogonalLoop=1;jettySize=auto;html=1;exitX=1;exitY=0.75;exitDx=0;exitDy=0;entryX=0;entryY=0.5;entryDx=0;entryDy=0;endArrow=none;endFill=0;" edge="1" parent="1" source="Eut6qoM-Ry_GhNk9pcmR-1" target="Eut6qoM-Ry_GhNk9pcmR-3">
          <mxGeometry relative="1" as="geometry" />
        </mxCell>
        <mxCell id="Eut6qoM-Ry_GhNk9pcmR-7" style="rounded=0;orthogonalLoop=1;jettySize=auto;html=1;exitX=0.5;exitY=1;exitDx=0;exitDy=0;entryX=0;entryY=0.5;entryDx=0;entryDy=0;endArrow=none;endFill=0;" edge="1" parent="1" source="Eut6qoM-Ry_GhNk9pcmR-1" target="Eut6qoM-Ry_GhNk9pcmR-6">
          <mxGeometry relative="1" as="geometry" />
        </mxCell>
        <mxCell id="Eut6qoM-Ry_GhNk9pcmR-1" value="Proyecto" style="whiteSpace=wrap;html=1;align=center;" vertex="1" parent="1">
          <mxGeometry x="1470" y="110" width="100" height="40" as="geometry" />
        </mxCell>
        <mxCell id="Eut6qoM-Ry_GhNk9pcmR-2" value="Fecha" style="ellipse;whiteSpace=wrap;html=1;align=center;" vertex="1" parent="1">
          <mxGeometry x="1570" y="50" width="100" height="40" as="geometry" />
        </mxCell>
        <mxCell id="Eut6qoM-Ry_GhNk9pcmR-3" value="Nombre" style="ellipse;whiteSpace=wrap;html=1;align=center;" vertex="1" parent="1">
          <mxGeometry x="1610" y="120" width="100" height="40" as="geometry" />
        </mxCell>
        <mxCell id="Eut6qoM-Ry_GhNk9pcmR-10" style="rounded=0;orthogonalLoop=1;jettySize=auto;html=1;exitX=0.5;exitY=1;exitDx=0;exitDy=0;entryX=0.5;entryY=0;entryDx=0;entryDy=0;endArrow=none;endFill=0;" edge="1" parent="1" source="Eut6qoM-Ry_GhNk9pcmR-6" target="Eut6qoM-Ry_GhNk9pcmR-9">
          <mxGeometry relative="1" as="geometry" />
        </mxCell>
        <mxCell id="Eut6qoM-Ry_GhNk9pcmR-11" style="rounded=0;orthogonalLoop=1;jettySize=auto;html=1;exitX=0.5;exitY=0;exitDx=0;exitDy=0;entryX=0.5;entryY=0;entryDx=0;entryDy=0;endArrow=none;endFill=0;" edge="1" parent="1" source="Eut6qoM-Ry_GhNk9pcmR-6" target="Eut6qoM-Ry_GhNk9pcmR-8">
          <mxGeometry relative="1" as="geometry" />
        </mxCell>
        <mxCell id="Eut6qoM-Ry_GhNk9pcmR-6" value="" style="triangle;whiteSpace=wrap;html=1;rotation=90;" vertex="1" parent="1">
          <mxGeometry x="1500" y="215" width="40" height="50" as="geometry" />
        </mxCell>
        <mxCell id="Eut6qoM-Ry_GhNk9pcmR-15" style="rounded=0;orthogonalLoop=1;jettySize=auto;html=1;exitX=1;exitY=0.75;exitDx=0;exitDy=0;entryX=0;entryY=0;entryDx=0;entryDy=0;endArrow=none;endFill=0;" edge="1" parent="1" source="Eut6qoM-Ry_GhNk9pcmR-8" target="Eut6qoM-Ry_GhNk9pcmR-14">
          <mxGeometry relative="1" as="geometry" />
        </mxCell>
        <mxCell id="Eut6qoM-Ry_GhNk9pcmR-8" value="Proy_rev" style="whiteSpace=wrap;html=1;align=center;" vertex="1" parent="1">
          <mxGeometry x="1590" y="290" width="100" height="40" as="geometry" />
        </mxCell>
        <mxCell id="Eut6qoM-Ry_GhNk9pcmR-9" value="Proy_nuevo" style="whiteSpace=wrap;html=1;align=center;" vertex="1" parent="1">
          <mxGeometry x="1360" y="290" width="100" height="40" as="geometry" />
        </mxCell>
        <mxCell id="Eut6qoM-Ry_GhNk9pcmR-13" style="rounded=0;orthogonalLoop=1;jettySize=auto;html=1;exitX=1;exitY=0;exitDx=0;exitDy=0;entryX=0;entryY=0.75;entryDx=0;entryDy=0;endArrow=none;endFill=0;" edge="1" parent="1" source="Eut6qoM-Ry_GhNk9pcmR-12" target="Eut6qoM-Ry_GhNk9pcmR-9">
          <mxGeometry relative="1" as="geometry" />
        </mxCell>
        <mxCell id="Eut6qoM-Ry_GhNk9pcmR-12" value="Presupuesto" style="ellipse;whiteSpace=wrap;html=1;align=center;" vertex="1" parent="1">
          <mxGeometry x="1250" y="330" width="100" height="40" as="geometry" />
        </mxCell>
        <mxCell id="Eut6qoM-Ry_GhNk9pcmR-14" value="Motivo_rev" style="ellipse;whiteSpace=wrap;html=1;align=center;" vertex="1" parent="1">
          <mxGeometry x="1730" y="340" width="100" height="40" as="geometry" />
        </mxCell>
        <mxCell id="Eut6qoM-Ry_GhNk9pcmR-56" style="rounded=0;orthogonalLoop=1;jettySize=auto;html=1;exitX=0.5;exitY=0;exitDx=0;exitDy=0;entryX=0.5;entryY=1;entryDx=0;entryDy=0;endArrow=none;endFill=0;" edge="1" parent="1" source="Eut6qoM-Ry_GhNk9pcmR-16" target="Eut6qoM-Ry_GhNk9pcmR-25">
          <mxGeometry relative="1" as="geometry" />
        </mxCell>
        <mxCell id="Eut6qoM-Ry_GhNk9pcmR-57" style="rounded=0;orthogonalLoop=1;jettySize=auto;html=1;exitX=1;exitY=0;exitDx=0;exitDy=0;entryX=0;entryY=1;entryDx=0;entryDy=0;endArrow=none;endFill=0;" edge="1" parent="1" source="Eut6qoM-Ry_GhNk9pcmR-16" target="Eut6qoM-Ry_GhNk9pcmR-19">
          <mxGeometry relative="1" as="geometry" />
        </mxCell>
        <mxCell id="Eut6qoM-Ry_GhNk9pcmR-60" style="rounded=0;orthogonalLoop=1;jettySize=auto;html=1;exitX=1;exitY=1;exitDx=0;exitDy=0;entryX=0;entryY=0;entryDx=0;entryDy=0;endArrow=none;endFill=0;" edge="1" parent="1" source="Eut6qoM-Ry_GhNk9pcmR-16" target="Eut6qoM-Ry_GhNk9pcmR-27">
          <mxGeometry relative="1" as="geometry" />
        </mxCell>
        <mxCell id="Eut6qoM-Ry_GhNk9pcmR-89" style="rounded=0;orthogonalLoop=1;jettySize=auto;html=1;exitX=0.75;exitY=1;exitDx=0;exitDy=0;entryX=0.5;entryY=0;entryDx=0;entryDy=0;endArrow=none;endFill=0;" edge="1" parent="1" source="Eut6qoM-Ry_GhNk9pcmR-16" target="Eut6qoM-Ry_GhNk9pcmR-21">
          <mxGeometry relative="1" as="geometry" />
        </mxCell>
        <mxCell id="Eut6qoM-Ry_GhNk9pcmR-16" value="Investigador" style="whiteSpace=wrap;html=1;align=center;" vertex="1" parent="1">
          <mxGeometry x="600" y="110" width="100" height="40" as="geometry" />
        </mxCell>
        <mxCell id="Eut6qoM-Ry_GhNk9pcmR-17" value="Apellido" style="ellipse;whiteSpace=wrap;html=1;align=center;" vertex="1" parent="1">
          <mxGeometry x="480" width="100" height="40" as="geometry" />
        </mxCell>
        <mxCell id="Eut6qoM-Ry_GhNk9pcmR-18" value="Nombre" style="ellipse;whiteSpace=wrap;html=1;align=center;" vertex="1" parent="1">
          <mxGeometry x="350" y="10" width="100" height="40" as="geometry" />
        </mxCell>
        <mxCell id="Eut6qoM-Ry_GhNk9pcmR-19" value="Dirección" style="ellipse;whiteSpace=wrap;html=1;align=center;" vertex="1" parent="1">
          <mxGeometry x="740" y="50" width="100" height="40" as="geometry" />
        </mxCell>
        <mxCell id="Eut6qoM-Ry_GhNk9pcmR-53" style="rounded=0;orthogonalLoop=1;jettySize=auto;html=1;exitX=1;exitY=1;exitDx=0;exitDy=0;entryX=0;entryY=0;entryDx=0;entryDy=0;endArrow=none;endFill=0;" edge="1" parent="1" source="Eut6qoM-Ry_GhNk9pcmR-20" target="Eut6qoM-Ry_GhNk9pcmR-16">
          <mxGeometry relative="1" as="geometry" />
        </mxCell>
        <mxCell id="Eut6qoM-Ry_GhNk9pcmR-54" style="rounded=0;orthogonalLoop=1;jettySize=auto;html=1;exitX=0;exitY=0;exitDx=0;exitDy=0;entryX=1;entryY=1;entryDx=0;entryDy=0;endArrow=none;endFill=0;" edge="1" parent="1" source="Eut6qoM-Ry_GhNk9pcmR-20" target="Eut6qoM-Ry_GhNk9pcmR-18">
          <mxGeometry relative="1" as="geometry" />
        </mxCell>
        <mxCell id="Eut6qoM-Ry_GhNk9pcmR-55" style="rounded=0;orthogonalLoop=1;jettySize=auto;html=1;exitX=0.5;exitY=0;exitDx=0;exitDy=0;entryX=0.5;entryY=1;entryDx=0;entryDy=0;endArrow=none;endFill=0;" edge="1" parent="1" source="Eut6qoM-Ry_GhNk9pcmR-20" target="Eut6qoM-Ry_GhNk9pcmR-17">
          <mxGeometry relative="1" as="geometry" />
        </mxCell>
        <mxCell id="Eut6qoM-Ry_GhNk9pcmR-20" value="Nomb_comp" style="ellipse;shape=doubleEllipse;margin=3;whiteSpace=wrap;html=1;align=center;" vertex="1" parent="1">
          <mxGeometry x="490" y="60" width="100" height="40" as="geometry" />
        </mxCell>
        <mxCell id="Eut6qoM-Ry_GhNk9pcmR-21" value="DNI" style="ellipse;whiteSpace=wrap;html=1;align=center;fontStyle=4;" vertex="1" parent="1">
          <mxGeometry x="660" y="260" width="100" height="40" as="geometry" />
        </mxCell>
        <mxCell id="Eut6qoM-Ry_GhNk9pcmR-88" style="rounded=0;orthogonalLoop=1;jettySize=auto;html=1;exitX=0;exitY=1;exitDx=0;exitDy=0;entryX=0.75;entryY=0;entryDx=0;entryDy=0;endArrow=none;endFill=0;" edge="1" parent="1" source="Eut6qoM-Ry_GhNk9pcmR-22" target="Eut6qoM-Ry_GhNk9pcmR-16">
          <mxGeometry relative="1" as="geometry" />
        </mxCell>
        <mxCell id="Eut6qoM-Ry_GhNk9pcmR-22" value="Localidad" style="ellipse;whiteSpace=wrap;html=1;align=center;" vertex="1" parent="1">
          <mxGeometry x="720" width="100" height="40" as="geometry" />
        </mxCell>
        <mxCell id="Eut6qoM-Ry_GhNk9pcmR-59" style="rounded=0;orthogonalLoop=1;jettySize=auto;html=1;exitX=1;exitY=0;exitDx=0;exitDy=0;entryX=0;entryY=1;entryDx=0;entryDy=0;endArrow=none;endFill=0;" edge="1" parent="1" source="Eut6qoM-Ry_GhNk9pcmR-23" target="Eut6qoM-Ry_GhNk9pcmR-16">
          <mxGeometry relative="1" as="geometry" />
        </mxCell>
        <mxCell id="Eut6qoM-Ry_GhNk9pcmR-23" value="Telefonos" style="ellipse;shape=doubleEllipse;margin=3;whiteSpace=wrap;html=1;align=center;" vertex="1" parent="1">
          <mxGeometry x="470" y="175" width="100" height="40" as="geometry" />
        </mxCell>
        <mxCell id="Eut6qoM-Ry_GhNk9pcmR-25" value="Cant_proy" style="ellipse;whiteSpace=wrap;html=1;align=center;" vertex="1" parent="1">
          <mxGeometry x="600" y="20" width="100" height="40" as="geometry" />
        </mxCell>
        <mxCell id="Eut6qoM-Ry_GhNk9pcmR-58" style="rounded=0;orthogonalLoop=1;jettySize=auto;html=1;exitX=1;exitY=0.5;exitDx=0;exitDy=0;entryX=0;entryY=0.75;entryDx=0;entryDy=0;endArrow=none;endFill=0;" edge="1" parent="1" source="Eut6qoM-Ry_GhNk9pcmR-26" target="Eut6qoM-Ry_GhNk9pcmR-16">
          <mxGeometry relative="1" as="geometry" />
        </mxCell>
        <mxCell id="Eut6qoM-Ry_GhNk9pcmR-26" value="Fecha_ing" style="ellipse;whiteSpace=wrap;html=1;align=center;" vertex="1" parent="1">
          <mxGeometry x="450" y="120" width="100" height="40" as="geometry" />
        </mxCell>
        <mxCell id="Eut6qoM-Ry_GhNk9pcmR-61" style="rounded=0;orthogonalLoop=1;jettySize=auto;html=1;exitX=0;exitY=1;exitDx=0;exitDy=0;entryX=0.5;entryY=0;entryDx=0;entryDy=0;endArrow=none;endFill=0;" edge="1" parent="1" source="Eut6qoM-Ry_GhNk9pcmR-27" target="Eut6qoM-Ry_GhNk9pcmR-28">
          <mxGeometry relative="1" as="geometry" />
        </mxCell>
        <mxCell id="Eut6qoM-Ry_GhNk9pcmR-62" style="rounded=0;orthogonalLoop=1;jettySize=auto;html=1;exitX=1;exitY=1;exitDx=0;exitDy=0;entryX=0;entryY=0;entryDx=0;entryDy=0;endArrow=none;endFill=0;" edge="1" parent="1" source="Eut6qoM-Ry_GhNk9pcmR-27" target="Eut6qoM-Ry_GhNk9pcmR-29">
          <mxGeometry relative="1" as="geometry" />
        </mxCell>
        <mxCell id="Eut6qoM-Ry_GhNk9pcmR-63" style="rounded=0;orthogonalLoop=1;jettySize=auto;html=1;exitX=1;exitY=0.5;exitDx=0;exitDy=0;entryX=0;entryY=0.5;entryDx=0;entryDy=0;endArrow=none;endFill=0;" edge="1" parent="1" source="Eut6qoM-Ry_GhNk9pcmR-27" target="Eut6qoM-Ry_GhNk9pcmR-30">
          <mxGeometry relative="1" as="geometry" />
        </mxCell>
        <mxCell id="Eut6qoM-Ry_GhNk9pcmR-27" value="Fecha_inicio_pue" style="ellipse;shape=doubleEllipse;margin=3;whiteSpace=wrap;html=1;align=center;" vertex="1" parent="1">
          <mxGeometry x="750" y="150" width="100" height="40" as="geometry" />
        </mxCell>
        <mxCell id="Eut6qoM-Ry_GhNk9pcmR-28" value="Dia" style="ellipse;whiteSpace=wrap;html=1;align=center;" vertex="1" parent="1">
          <mxGeometry x="720" y="210" width="100" height="40" as="geometry" />
        </mxCell>
        <mxCell id="Eut6qoM-Ry_GhNk9pcmR-29" value="Mes" style="ellipse;whiteSpace=wrap;html=1;align=center;" vertex="1" parent="1">
          <mxGeometry x="840" y="220" width="100" height="40" as="geometry" />
        </mxCell>
        <mxCell id="Eut6qoM-Ry_GhNk9pcmR-30" value="Año" style="ellipse;whiteSpace=wrap;html=1;align=center;" vertex="1" parent="1">
          <mxGeometry x="900" y="160" width="100" height="40" as="geometry" />
        </mxCell>
        <mxCell id="Eut6qoM-Ry_GhNk9pcmR-71" style="rounded=0;orthogonalLoop=1;jettySize=auto;html=1;exitX=0;exitY=0;exitDx=0;exitDy=0;entryX=1;entryY=0.5;entryDx=0;entryDy=0;endArrow=none;endFill=0;" edge="1" parent="1" source="Eut6qoM-Ry_GhNk9pcmR-31" target="Eut6qoM-Ry_GhNk9pcmR-42">
          <mxGeometry relative="1" as="geometry" />
        </mxCell>
        <mxCell id="Eut6qoM-Ry_GhNk9pcmR-31" value="Conferencia" style="whiteSpace=wrap;html=1;align=center;" vertex="1" parent="1">
          <mxGeometry x="600" y="670" width="100" height="40" as="geometry" />
        </mxCell>
        <mxCell id="Eut6qoM-Ry_GhNk9pcmR-73" style="rounded=0;orthogonalLoop=1;jettySize=auto;html=1;exitX=0.5;exitY=0;exitDx=0;exitDy=0;entryX=0.5;entryY=1;entryDx=0;entryDy=0;endArrow=none;endFill=0;" edge="1" parent="1" source="Eut6qoM-Ry_GhNk9pcmR-32" target="Eut6qoM-Ry_GhNk9pcmR-31">
          <mxGeometry relative="1" as="geometry" />
        </mxCell>
        <mxCell id="Eut6qoM-Ry_GhNk9pcmR-32" value="Nombre_ident" style="ellipse;whiteSpace=wrap;html=1;align=center;fontStyle=4;" vertex="1" parent="1">
          <mxGeometry x="580" y="750" width="100" height="40" as="geometry" />
        </mxCell>
        <mxCell id="Eut6qoM-Ry_GhNk9pcmR-74" style="rounded=0;orthogonalLoop=1;jettySize=auto;html=1;exitX=0;exitY=0;exitDx=0;exitDy=0;entryX=1;entryY=1;entryDx=0;entryDy=0;endArrow=none;endFill=0;" edge="1" parent="1" source="Eut6qoM-Ry_GhNk9pcmR-35" target="Eut6qoM-Ry_GhNk9pcmR-31">
          <mxGeometry relative="1" as="geometry" />
        </mxCell>
        <mxCell id="Eut6qoM-Ry_GhNk9pcmR-35" value="Hora_realiza" style="ellipse;shape=doubleEllipse;margin=3;whiteSpace=wrap;html=1;align=center;" vertex="1" parent="1">
          <mxGeometry x="720" y="740" width="100" height="40" as="geometry" />
        </mxCell>
        <mxCell id="Eut6qoM-Ry_GhNk9pcmR-72" style="rounded=0;orthogonalLoop=1;jettySize=auto;html=1;exitX=1;exitY=0;exitDx=0;exitDy=0;entryX=0;entryY=1;entryDx=0;entryDy=0;endArrow=none;endFill=0;" edge="1" parent="1" source="Eut6qoM-Ry_GhNk9pcmR-36" target="Eut6qoM-Ry_GhNk9pcmR-31">
          <mxGeometry relative="1" as="geometry" />
        </mxCell>
        <mxCell id="Eut6qoM-Ry_GhNk9pcmR-36" value="Fecha_inicio" style="ellipse;shape=doubleEllipse;margin=3;whiteSpace=wrap;html=1;align=center;" vertex="1" parent="1">
          <mxGeometry x="460" y="730" width="100" height="40" as="geometry" />
        </mxCell>
        <mxCell id="Eut6qoM-Ry_GhNk9pcmR-44" style="rounded=0;orthogonalLoop=1;jettySize=auto;html=1;exitX=1;exitY=0;exitDx=0;exitDy=0;entryX=0;entryY=1;entryDx=0;entryDy=0;endArrow=none;endFill=0;" edge="1" parent="1" source="Eut6qoM-Ry_GhNk9pcmR-37" target="Eut6qoM-Ry_GhNk9pcmR-36">
          <mxGeometry relative="1" as="geometry" />
        </mxCell>
        <mxCell id="Eut6qoM-Ry_GhNk9pcmR-37" value="Dia" style="ellipse;whiteSpace=wrap;html=1;align=center;" vertex="1" parent="1">
          <mxGeometry x="354" y="800" width="100" height="40" as="geometry" />
        </mxCell>
        <mxCell id="Eut6qoM-Ry_GhNk9pcmR-45" style="rounded=0;orthogonalLoop=1;jettySize=auto;html=1;exitX=0.5;exitY=0;exitDx=0;exitDy=0;entryX=0.5;entryY=1;entryDx=0;entryDy=0;endArrow=none;endFill=0;" edge="1" parent="1" source="Eut6qoM-Ry_GhNk9pcmR-38" target="Eut6qoM-Ry_GhNk9pcmR-36">
          <mxGeometry relative="1" as="geometry" />
        </mxCell>
        <mxCell id="Eut6qoM-Ry_GhNk9pcmR-38" value="Mes" style="ellipse;whiteSpace=wrap;html=1;align=center;" vertex="1" parent="1">
          <mxGeometry x="480" y="810" width="100" height="40" as="geometry" />
        </mxCell>
        <mxCell id="Eut6qoM-Ry_GhNk9pcmR-43" style="rounded=0;orthogonalLoop=1;jettySize=auto;html=1;exitX=1;exitY=0.5;exitDx=0;exitDy=0;entryX=0;entryY=0;entryDx=0;entryDy=0;endArrow=none;endFill=0;" edge="1" parent="1" source="Eut6qoM-Ry_GhNk9pcmR-39" target="Eut6qoM-Ry_GhNk9pcmR-36">
          <mxGeometry relative="1" as="geometry" />
        </mxCell>
        <mxCell id="Eut6qoM-Ry_GhNk9pcmR-39" value="Año" style="ellipse;whiteSpace=wrap;html=1;align=center;" vertex="1" parent="1">
          <mxGeometry x="330" y="720" width="100" height="40" as="geometry" />
        </mxCell>
        <mxCell id="Eut6qoM-Ry_GhNk9pcmR-70" style="rounded=0;orthogonalLoop=1;jettySize=auto;html=1;exitX=1;exitY=1;exitDx=0;exitDy=0;entryX=0.25;entryY=0;entryDx=0;entryDy=0;endArrow=none;endFill=0;" edge="1" parent="1" source="Eut6qoM-Ry_GhNk9pcmR-40" target="Eut6qoM-Ry_GhNk9pcmR-31">
          <mxGeometry relative="1" as="geometry" />
        </mxCell>
        <mxCell id="Eut6qoM-Ry_GhNk9pcmR-40" value="Horas_duracion" style="ellipse;whiteSpace=wrap;html=1;align=center;" vertex="1" parent="1">
          <mxGeometry x="520" y="570" width="100" height="40" as="geometry" />
        </mxCell>
        <mxCell id="Eut6qoM-Ry_GhNk9pcmR-75" style="rounded=0;orthogonalLoop=1;jettySize=auto;html=1;exitX=0;exitY=1;exitDx=0;exitDy=0;entryX=1;entryY=0;entryDx=0;entryDy=0;endArrow=none;endFill=0;" edge="1" parent="1" source="Eut6qoM-Ry_GhNk9pcmR-41" target="Eut6qoM-Ry_GhNk9pcmR-31">
          <mxGeometry relative="1" as="geometry" />
        </mxCell>
        <mxCell id="Eut6qoM-Ry_GhNk9pcmR-41" value="Lugar" style="ellipse;whiteSpace=wrap;html=1;align=center;" vertex="1" parent="1">
          <mxGeometry x="690" y="600" width="100" height="40" as="geometry" />
        </mxCell>
        <mxCell id="Eut6qoM-Ry_GhNk9pcmR-42" value="Cant_invest" style="ellipse;whiteSpace=wrap;html=1;align=center;" vertex="1" parent="1">
          <mxGeometry x="440" y="630" width="100" height="40" as="geometry" />
        </mxCell>
        <mxCell id="Eut6qoM-Ry_GhNk9pcmR-46" value="Asistente" style="whiteSpace=wrap;html=1;align=center;" vertex="1" parent="1">
          <mxGeometry x="1470" y="670" width="100" height="40" as="geometry" />
        </mxCell>
        <mxCell id="Eut6qoM-Ry_GhNk9pcmR-84" style="rounded=0;orthogonalLoop=1;jettySize=auto;html=1;exitX=0;exitY=1;exitDx=0;exitDy=0;entryX=1;entryY=0;entryDx=0;entryDy=0;endArrow=none;endFill=0;" edge="1" parent="1" source="Eut6qoM-Ry_GhNk9pcmR-47" target="Eut6qoM-Ry_GhNk9pcmR-46">
          <mxGeometry relative="1" as="geometry" />
        </mxCell>
        <mxCell id="Eut6qoM-Ry_GhNk9pcmR-47" value="Nombre" style="ellipse;whiteSpace=wrap;html=1;align=center;" vertex="1" parent="1">
          <mxGeometry x="1570" y="590" width="66" height="40" as="geometry" />
        </mxCell>
        <mxCell id="Eut6qoM-Ry_GhNk9pcmR-80" style="rounded=0;orthogonalLoop=1;jettySize=auto;html=1;exitX=1;exitY=0;exitDx=0;exitDy=0;entryX=0;entryY=1;entryDx=0;entryDy=0;endArrow=none;endFill=0;" edge="1" parent="1" source="Eut6qoM-Ry_GhNk9pcmR-50" target="Eut6qoM-Ry_GhNk9pcmR-46">
          <mxGeometry relative="1" as="geometry" />
        </mxCell>
        <mxCell id="Eut6qoM-Ry_GhNk9pcmR-50" value="Email" style="ellipse;whiteSpace=wrap;html=1;align=center;fontStyle=0;" vertex="1" parent="1">
          <mxGeometry x="1380" y="730" width="66" height="40" as="geometry" />
        </mxCell>
        <mxCell id="Eut6qoM-Ry_GhNk9pcmR-82" style="rounded=0;orthogonalLoop=1;jettySize=auto;html=1;exitX=0;exitY=0;exitDx=0;exitDy=0;entryX=1;entryY=1;entryDx=0;entryDy=0;endArrow=none;endFill=0;" edge="1" parent="1" source="Eut6qoM-Ry_GhNk9pcmR-51" target="Eut6qoM-Ry_GhNk9pcmR-46">
          <mxGeometry relative="1" as="geometry" />
        </mxCell>
        <mxCell id="Eut6qoM-Ry_GhNk9pcmR-51" value="Fecha_inscripcion" style="ellipse;shape=doubleEllipse;margin=3;whiteSpace=wrap;html=1;align=center;" vertex="1" parent="1">
          <mxGeometry x="1570" y="730" width="110" height="40" as="geometry" />
        </mxCell>
        <mxCell id="Eut6qoM-Ry_GhNk9pcmR-81" style="rounded=0;orthogonalLoop=1;jettySize=auto;html=1;exitX=1;exitY=1;exitDx=0;exitDy=0;entryX=0;entryY=0;entryDx=0;entryDy=0;endArrow=none;endFill=0;" edge="1" parent="1" source="Eut6qoM-Ry_GhNk9pcmR-52" target="Eut6qoM-Ry_GhNk9pcmR-46">
          <mxGeometry relative="1" as="geometry" />
        </mxCell>
        <mxCell id="Eut6qoM-Ry_GhNk9pcmR-52" value="Presentismo" style="ellipse;whiteSpace=wrap;html=1;align=center;" vertex="1" parent="1">
          <mxGeometry x="1370" y="590" width="80" height="40" as="geometry" />
        </mxCell>
        <mxCell id="Eut6qoM-Ry_GhNk9pcmR-65" style="edgeStyle=orthogonalEdgeStyle;rounded=0;orthogonalLoop=1;jettySize=auto;html=1;exitX=0;exitY=0.5;exitDx=0;exitDy=0;entryX=1;entryY=0.5;entryDx=0;entryDy=0;endArrow=ERoneToMany;endFill=0;" edge="1" parent="1" source="Eut6qoM-Ry_GhNk9pcmR-64" target="Eut6qoM-Ry_GhNk9pcmR-16">
          <mxGeometry relative="1" as="geometry" />
        </mxCell>
        <mxCell id="Eut6qoM-Ry_GhNk9pcmR-66" style="edgeStyle=orthogonalEdgeStyle;rounded=0;orthogonalLoop=1;jettySize=auto;html=1;exitX=1;exitY=0.5;exitDx=0;exitDy=0;entryX=0;entryY=0.5;entryDx=0;entryDy=0;endArrow=ERmandOne;endFill=0;" edge="1" parent="1" source="Eut6qoM-Ry_GhNk9pcmR-64" target="Eut6qoM-Ry_GhNk9pcmR-1">
          <mxGeometry relative="1" as="geometry" />
        </mxCell>
        <mxCell id="Eut6qoM-Ry_GhNk9pcmR-64" value="Trabaja" style="shape=rhombus;perimeter=rhombusPerimeter;whiteSpace=wrap;html=1;align=center;" vertex="1" parent="1">
          <mxGeometry x="1030" y="100" width="120" height="60" as="geometry" />
        </mxCell>
        <mxCell id="Eut6qoM-Ry_GhNk9pcmR-68" style="edgeStyle=orthogonalEdgeStyle;rounded=0;orthogonalLoop=1;jettySize=auto;html=1;exitX=0.5;exitY=0;exitDx=0;exitDy=0;entryX=0.5;entryY=1;entryDx=0;entryDy=0;endArrow=ERoneToMany;endFill=0;" edge="1" parent="1" source="Eut6qoM-Ry_GhNk9pcmR-67" target="Eut6qoM-Ry_GhNk9pcmR-16">
          <mxGeometry relative="1" as="geometry" />
        </mxCell>
        <mxCell id="Eut6qoM-Ry_GhNk9pcmR-69" style="edgeStyle=orthogonalEdgeStyle;rounded=0;orthogonalLoop=1;jettySize=auto;html=1;exitX=0.5;exitY=1;exitDx=0;exitDy=0;entryX=0.5;entryY=0;entryDx=0;entryDy=0;endArrow=ERzeroToOne;endFill=0;" edge="1" parent="1" source="Eut6qoM-Ry_GhNk9pcmR-67" target="Eut6qoM-Ry_GhNk9pcmR-31">
          <mxGeometry relative="1" as="geometry" />
        </mxCell>
        <mxCell id="Eut6qoM-Ry_GhNk9pcmR-67" value="Participa" style="shape=rhombus;perimeter=rhombusPerimeter;whiteSpace=wrap;html=1;align=center;" vertex="1" parent="1">
          <mxGeometry x="590" y="390" width="120" height="60" as="geometry" />
        </mxCell>
        <mxCell id="Eut6qoM-Ry_GhNk9pcmR-77" style="edgeStyle=orthogonalEdgeStyle;rounded=0;orthogonalLoop=1;jettySize=auto;html=1;exitX=0;exitY=0.5;exitDx=0;exitDy=0;entryX=1;entryY=0.5;entryDx=0;entryDy=0;" edge="1" parent="1" source="Eut6qoM-Ry_GhNk9pcmR-76" target="Eut6qoM-Ry_GhNk9pcmR-31">
          <mxGeometry relative="1" as="geometry" />
        </mxCell>
        <mxCell id="Eut6qoM-Ry_GhNk9pcmR-78" style="edgeStyle=orthogonalEdgeStyle;rounded=0;orthogonalLoop=1;jettySize=auto;html=1;exitX=1;exitY=0.5;exitDx=0;exitDy=0;entryX=0;entryY=0.5;entryDx=0;entryDy=0;" edge="1" parent="1" source="Eut6qoM-Ry_GhNk9pcmR-76" target="Eut6qoM-Ry_GhNk9pcmR-46">
          <mxGeometry relative="1" as="geometry" />
        </mxCell>
        <mxCell id="Eut6qoM-Ry_GhNk9pcmR-76" value="Asiste" style="shape=rhombus;perimeter=rhombusPerimeter;whiteSpace=wrap;html=1;align=center;" vertex="1" parent="1">
          <mxGeometry x="1030" y="660" width="120" height="60" as="geometry" />
        </mxCell>
        <mxCell id="Eut6qoM-Ry_GhNk9pcmR-83" style="rounded=0;orthogonalLoop=1;jettySize=auto;html=1;exitX=0.5;exitY=0;exitDx=0;exitDy=0;entryX=0.5;entryY=1;entryDx=0;entryDy=0;endArrow=none;endFill=0;" edge="1" parent="1" source="Eut6qoM-Ry_GhNk9pcmR-79" target="Eut6qoM-Ry_GhNk9pcmR-46">
          <mxGeometry relative="1" as="geometry" />
        </mxCell>
        <mxCell id="Eut6qoM-Ry_GhNk9pcmR-79" value="Telefono" style="ellipse;shape=doubleEllipse;margin=3;whiteSpace=wrap;html=1;align=center;" vertex="1" parent="1">
          <mxGeometry x="1450" y="780" width="100" height="40" as="geometry" />
        </mxCell>
        <mxCell id="Eut6qoM-Ry_GhNk9pcmR-86" style="rounded=0;orthogonalLoop=1;jettySize=auto;html=1;exitX=0.5;exitY=0;exitDx=0;exitDy=0;entryX=0.25;entryY=1;entryDx=0;entryDy=0;endArrow=none;endFill=0;" edge="1" parent="1" source="Eut6qoM-Ry_GhNk9pcmR-85" target="Eut6qoM-Ry_GhNk9pcmR-16">
          <mxGeometry relative="1" as="geometry" />
        </mxCell>
        <mxCell id="Eut6qoM-Ry_GhNk9pcmR-85" value="Es_dotado" style="ellipse;whiteSpace=wrap;html=1;align=center;" vertex="1" parent="1">
          <mxGeometry x="530" y="225" width="100" height="40" as="geometry" />
        </mxCell>
      </root>
    </mxGraphModel>
  </diagram>
</mxfile>
